# xmcd
#
# Track frame offsets:
#	150
#	15764
#	32683
#	52044
#	70039
#	82816
#	98380
#	114709
#	135178
#	149525
#	165684
#
# Disc length: 2397 seconds
# Revision: 0
# Processed by: cddbd v1.5.2PL0 Copyright (c) Steve Scherf et al.
# Submitted via: dBpowerAMP V12.0
#
DISCID=7d095b0b
DTITLE=Rob Heath - One More Day Above Ground
DYEAR=2008
DGENRE=Country
TTITLE0=Mystery of You
TTITLE1=One More Day Above Ground
TTITLE2=Watching
TTITLE3=Yours Truly...
TTITLE4=Brightest Stars
TTITLE5=Why Not Stand Out
TTITLE6=Flying Machine
TTITLE7=Starlight Tours
TTITLE8=To Come Back from His War
TTITLE9=The Way She Looked at Me
TTITLE10=What If They're Right
EXTD=
EXTT0=
EXTT1=
EXTT2=
EXTT3=
EXTT4=
EXTT5=
EXTT6=
EXTT7=
EXTT8=
EXTT9=
EXTT10=
PLAYORDER=
